<svg width="155" height="42" viewBox="0 0 155 42" fill="none" xmlns="http://www.w3.org/2000/svg">
<path d="M5.688 36.252C4.668 36.252 3.678 36.126 2.718 35.874C1.758 35.622 0.978 35.286 0.378 34.866L1.548 32.238C2.112 32.61 2.766 32.91 3.51 33.138C4.254 33.366 4.986 33.48 5.706 33.48C7.074 33.48 7.758 33.138 7.758 32.454C7.758 32.094 7.56 31.83 7.164 31.662C6.78 31.482 6.156 31.296 5.292 31.104C4.344 30.9 3.552 30.684 2.916 30.456C2.28 30.216 1.734 29.838 1.278 29.322C0.822 28.806 0.594 28.11 0.594 27.234C0.594 26.466 0.804 25.776 1.224 25.164C1.644 24.54 2.268 24.048 3.096 23.688C3.936 23.328 4.962 23.148 6.174 23.148C7.002 23.148 7.818 23.244 8.622 23.436C9.426 23.616 10.134 23.886 10.746 24.246L9.648 26.892C8.448 26.244 7.284 25.92 6.156 25.92C5.448 25.92 4.932 26.028 4.608 26.244C4.284 26.448 4.122 26.718 4.122 27.054C4.122 27.39 4.314 27.642 4.698 27.81C5.082 27.978 5.7 28.152 6.552 28.332C7.512 28.536 8.304 28.758 8.928 28.998C9.564 29.226 10.11 29.598 10.566 30.114C11.034 30.618 11.268 31.308 11.268 32.184C11.268 32.94 11.058 33.624 10.638 34.236C10.218 34.848 9.588 35.34 8.748 35.712C7.908 36.072 6.888 36.252 5.688 36.252ZM15.4205 26.226H11.5505V23.4H22.8365V26.226H18.9845V36H15.4205V26.226ZM24.1643 23.4H27.7283V36H24.1643V23.4ZM32.9459 26.226H29.0759V23.4H40.3619V26.226H36.5099V36H32.9459V26.226ZM51.8057 33.246V36H41.6897V23.4H51.5717V26.154H45.2177V28.278H50.8157V30.942H45.2177V33.246H51.8057ZM58.6434 31.428L57.3114 32.85V36H53.7834V23.4H57.3114V28.638L62.1894 23.4H66.1134L60.9654 28.98L66.3834 36H62.2434L58.6434 31.428ZM79.3605 30.224C80.0965 30.384 80.6618 30.704 81.0565 31.184C81.4618 31.6533 81.6645 32.2613 81.6645 33.008C81.6645 33.968 81.3071 34.7093 80.5925 35.232C79.8885 35.744 78.8431 36 77.4565 36H72.3045V24.8H77.1365C78.3845 24.8 79.3498 25.0507 80.0325 25.552C80.7258 26.0533 81.0725 26.7627 81.0725 27.68C81.0725 28.2987 80.9178 28.8267 80.6085 29.264C80.3098 29.6907 79.8938 30.0107 79.3605 30.224ZM73.4885 25.776V29.84H77.0565C77.9631 29.84 78.6618 29.6693 79.1525 29.328C79.6431 28.976 79.8885 28.4693 79.8885 27.808C79.8885 27.1467 79.6431 26.6453 79.1525 26.304C78.6618 25.952 77.9631 25.776 77.0565 25.776H73.4885ZM77.4405 35.024C78.4431 35.024 79.2005 34.8533 79.7125 34.512C80.2245 34.1707 80.4805 33.6373 80.4805 32.912C80.4805 31.5147 79.4671 30.816 77.4405 30.816H73.4885V35.024H77.4405ZM89.263 36.096C88.1536 36.096 87.1456 35.8507 86.239 35.36C85.343 34.8587 84.639 34.176 84.127 33.312C83.6256 32.448 83.375 31.4773 83.375 30.4C83.375 29.3227 83.6256 28.352 84.127 27.488C84.639 26.624 85.343 25.9467 86.239 25.456C87.1456 24.9547 88.1536 24.704 89.263 24.704C90.3723 24.704 91.3696 24.9493 92.255 25.44C93.151 25.9307 93.855 26.6133 94.367 27.488C94.879 28.352 95.135 29.3227 95.135 30.4C95.135 31.4773 94.879 32.4533 94.367 33.328C93.855 34.192 93.151 34.8693 92.255 35.36C91.3696 35.8507 90.3723 36.096 89.263 36.096ZM89.263 35.04C90.1483 35.04 90.9483 34.8427 91.663 34.448C92.3776 34.0427 92.9376 33.488 93.343 32.784C93.7483 32.0693 93.951 31.2747 93.951 30.4C93.951 29.5253 93.7483 28.736 93.343 28.032C92.9376 27.3173 92.3776 26.7627 91.663 26.368C90.9483 25.9627 90.1483 25.76 89.263 25.76C88.3776 25.76 87.5723 25.9627 86.847 26.368C86.1323 26.7627 85.567 27.3173 85.151 28.032C84.7456 28.736 84.543 29.5253 84.543 30.4C84.543 31.2747 84.7456 32.0693 85.151 32.784C85.567 33.488 86.1323 34.0427 86.847 34.448C87.5723 34.8427 88.3776 35.04 89.263 35.04ZM107.149 24.8V36H106.173L98.9728 26.912V36H97.7888V24.8H98.7648L105.981 33.888V24.8H107.149ZM112.98 25.824H109.044V24.8H118.1V25.824H114.164V36H112.98V25.824ZM126.453 33.008H120.213L118.869 36H117.637L122.757 24.8H123.925L129.045 36H127.797L126.453 33.008ZM126.021 32.048L123.333 26.032L120.645 32.048H126.021ZM140.258 24.8V36H139.282L132.082 26.912V36H130.898V24.8H131.874L139.09 33.888V24.8H140.258ZM151.802 30.4H152.938V34.672C152.415 35.1307 151.797 35.4827 151.082 35.728C150.367 35.9733 149.615 36.096 148.826 36.096C147.706 36.096 146.698 35.8507 145.802 35.36C144.906 34.8693 144.202 34.192 143.69 33.328C143.178 32.4533 142.922 31.4773 142.922 30.4C142.922 29.3227 143.178 28.352 143.69 27.488C144.202 26.6133 144.906 25.9307 145.802 25.44C146.698 24.9493 147.711 24.704 148.842 24.704C149.695 24.704 150.479 24.8427 151.194 25.12C151.909 25.3867 152.511 25.7867 153.002 26.32L152.266 27.072C151.381 26.1973 150.255 25.76 148.89 25.76C147.983 25.76 147.162 25.9627 146.426 26.368C145.701 26.7627 145.13 27.3173 144.714 28.032C144.298 28.736 144.09 29.5253 144.09 30.4C144.09 31.2747 144.298 32.064 144.714 32.768C145.13 33.472 145.701 34.0267 146.426 34.432C147.151 34.8373 147.967 35.04 148.874 35.04C150.026 35.04 151.002 34.752 151.802 34.176V30.4Z" fill="#232323"/>
<path d="M134 16.0066C134 17.1148 133.105 18.0132 132 18.0132C130.895 18.0132 130 17.1148 130 16.0066C130 14.8984 130.895 14 132 14C133.105 14 134 14.8984 134 16.0066Z" fill="#F2994A"/>
<rect x="113" y="0.349976" width="9" height="5" fill="#2F80ED"/>
<rect x="113" y="5" width="4" height="12.8" fill="#2F80ED"/>
<rect x="124" y="0.349976" width="4" height="17.45" fill="#2F80ED"/>
<path fill-rule="evenodd" clip-rule="evenodd" d="M6.7 0.35H1.75V17.85H15.05V13.925H6.7V0.35ZM20.1541 17.85L21.5291 14.45H28.9291L30.3041 17.85H35.4541L27.7041 0.35H22.8291L15.1041 17.85H20.1541ZM25.2291 5.2L27.4791 10.8H22.9791L25.2291 5.2ZM52.6574 10.375C52.0908 9.625 51.3074 9.075 50.3074 8.725C51.0574 8.34167 51.6324 7.825 52.0324 7.175C52.4491 6.50833 52.6574 5.75833 52.6574 4.925C52.6574 3.525 52.0741 2.41667 50.9074 1.6C49.7408 0.766667 48.0408 0.35 45.8074 0.35H36.8574V17.85H46.3074C48.6408 17.85 50.4241 17.4333 51.6574 16.6C52.8908 15.7667 53.5074 14.5833 53.5074 13.05C53.5074 12 53.2241 11.1083 52.6574 10.375ZM41.7574 7.3V3.925H45.1574C46.8241 3.925 47.6574 4.48333 47.6574 5.6C47.6574 6.73333 46.8241 7.3 45.1574 7.3H41.7574ZM48.5074 12.5C48.5074 13.6833 47.6408 14.275 45.9074 14.275H41.7574V10.725H45.9074C47.6408 10.725 48.5074 11.3167 48.5074 12.5ZM60.9713 13.475L62.8213 11.5L67.8213 17.85H73.5713L66.0463 8.1L73.1963 0.35H67.7463L60.9713 7.625V0.35H56.0713V17.85H60.9713V13.475ZM78.0603 17.025C79.5437 17.8083 81.2104 18.2 83.0603 18.2C84.9104 18.2 86.5687 17.8083 88.0354 17.025C89.5187 16.2417 90.677 15.1583 91.5104 13.775C92.3604 12.3917 92.7854 10.8333 92.7854 9.1C92.7854 7.36667 92.3604 5.80833 91.5104 4.425C90.677 3.04167 89.5187 1.95833 88.0354 1.175C86.5687 0.391667 84.9104 0 83.0603 0C81.2104 0 79.5437 0.391667 78.0603 1.175C76.5937 1.95833 75.4353 3.04167 74.5854 4.425C73.752 5.80833 73.3354 7.36667 73.3354 9.1C73.3354 10.8333 73.752 12.3917 74.5854 13.775C75.4353 15.1583 76.5937 16.2417 78.0603 17.025ZM85.4604 13.475C84.7437 13.8917 83.9437 14.1 83.0603 14.1C82.177 14.1 81.377 13.8917 80.6604 13.475C79.9437 13.0583 79.377 12.475 78.9604 11.725C78.5437 10.9583 78.3354 10.0833 78.3354 9.1C78.3354 8.11667 78.5437 7.25 78.9604 6.5C79.377 5.73333 79.9437 5.14167 80.6604 4.725C81.377 4.30833 82.177 4.1 83.0603 4.1C83.9437 4.1 84.7437 4.30833 85.4604 4.725C86.177 5.14167 86.7437 5.73333 87.1604 6.5C87.577 7.25 87.7854 8.11667 87.7854 9.1C87.7854 10.0833 87.577 10.9583 87.1604 11.725C86.7437 12.475 86.177 13.0583 85.4604 13.475ZM111 8.78964L106.628 16.125H104.428L99.9529 8.825V17.85H95.3779V0.35H99.4529L105.603 10.45L111 1.36493V8.78964Z" fill="#232323"/>
</svg>
